<svg width="51" height="13" viewBox="0 0 51 13" fill="none" xmlns="http://www.w3.org/2000/svg">
<path d="M0.632 12C0.525333 12 0.434667 11.9627 0.36 11.888C0.285333 11.8133 0.248 11.7227 0.248 11.616V1.2C0.248 1.08267 0.285333 0.986666 0.36 0.912C0.434667 0.837333 0.525333 0.799999 0.632 0.799999H1.864C2.01333 0.799999 2.12 0.837333 2.184 0.912C2.25867 0.976 2.30667 1.024 2.328 1.056L6.936 8.224V1.2C6.936 1.08267 6.968 0.986666 7.032 0.912C7.10667 0.837333 7.20267 0.799999 7.32 0.799999H8.664C8.78133 0.799999 8.87733 0.837333 8.952 0.912C9.02667 0.986666 9.064 1.08267 9.064 1.2V11.6C9.064 11.7173 9.02667 11.8133 8.952 11.888C8.87733 11.9627 8.78667 12 8.68 12H7.432C7.28267 12 7.176 11.9627 7.112 11.888C7.048 11.8133 7 11.7653 6.968 11.744L2.376 4.736V11.616C2.376 11.7227 2.33867 11.8133 2.264 11.888C2.18933 11.9627 2.09333 12 1.976 12H0.632ZM15.8645 12.16C14.9152 12.16 14.0992 12.0053 13.4165 11.696C12.7338 11.376 12.2005 10.8907 11.8165 10.24C11.4325 9.57867 11.2245 8.75733 11.1925 7.776C11.1818 7.31733 11.1765 6.864 11.1765 6.416C11.1765 5.968 11.1818 5.50933 11.1925 5.04C11.2245 4.06933 11.4378 3.25867 11.8325 2.608C12.2272 1.95733 12.7658 1.46667 13.4485 1.136C14.1418 0.805333 14.9472 0.639999 15.8645 0.639999C16.7818 0.639999 17.5872 0.805333 18.2805 1.136C18.9738 1.46667 19.5178 1.95733 19.9125 2.608C20.3072 3.25867 20.5205 4.06933 20.5525 5.04C20.5738 5.50933 20.5845 5.968 20.5845 6.416C20.5845 6.864 20.5738 7.31733 20.5525 7.776C20.5205 8.75733 20.3125 9.57867 19.9285 10.24C19.5445 10.8907 19.0058 11.376 18.3125 11.696C17.6298 12.0053 16.8138 12.16 15.8645 12.16ZM15.8645 10.32C16.5578 10.32 17.1232 10.1173 17.5605 9.712C17.9978 9.296 18.2325 8.624 18.2645 7.696C18.2858 7.22667 18.2965 6.79467 18.2965 6.4C18.2965 5.99467 18.2858 5.56267 18.2645 5.104C18.2432 4.48533 18.1258 3.984 17.9125 3.6C17.7098 3.20533 17.4325 2.92267 17.0805 2.752C16.7285 2.57067 16.3232 2.48 15.8645 2.48C15.4165 2.48 15.0165 2.57067 14.6645 2.752C14.3125 2.92267 14.0298 3.20533 13.8165 3.6C13.6138 3.984 13.5018 4.48533 13.4805 5.104C13.4698 5.56267 13.4645 5.99467 13.4645 6.4C13.4645 6.79467 13.4698 7.22667 13.4805 7.696C13.5125 8.624 13.7472 9.296 14.1845 9.712C14.6218 10.1173 15.1818 10.32 15.8645 10.32ZM25.3304 12C25.2237 12 25.133 11.9627 25.0584 11.888C24.9837 11.8133 24.9464 11.7227 24.9464 11.616V2.768H21.9864C21.8797 2.768 21.789 2.73067 21.7144 2.656C21.6397 2.58133 21.6024 2.49067 21.6024 2.384V1.2C21.6024 1.08267 21.6397 0.986666 21.7144 0.912C21.789 0.837333 21.8797 0.799999 21.9864 0.799999H30.1464C30.2637 0.799999 30.3597 0.837333 30.4344 0.912C30.509 0.986666 30.5464 1.08267 30.5464 1.2V2.384C30.5464 2.49067 30.509 2.58133 30.4344 2.656C30.3597 2.73067 30.2637 2.768 30.1464 2.768H27.2024V11.616C27.2024 11.7227 27.165 11.8133 27.0904 11.888C27.0157 11.9627 26.9197 12 26.8024 12H25.3304ZM32.5539 12C32.4472 12 32.3565 11.9627 32.2819 11.888C32.2072 11.8133 32.1699 11.7227 32.1699 11.616V1.2C32.1699 1.08267 32.2072 0.986666 32.2819 0.912C32.3565 0.837333 32.4472 0.799999 32.5539 0.799999H39.5939C39.7112 0.799999 39.8072 0.837333 39.8819 0.912C39.9565 0.986666 39.9939 1.08267 39.9939 1.2V2.256C39.9939 2.36267 39.9565 2.45333 39.8819 2.528C39.8072 2.60267 39.7112 2.64 39.5939 2.64H34.3299V5.472H39.2419C39.3592 5.472 39.4552 5.50933 39.5299 5.584C39.6045 5.648 39.6419 5.73867 39.6419 5.856V6.848C39.6419 6.96533 39.6045 7.06133 39.5299 7.136C39.4552 7.2 39.3592 7.232 39.2419 7.232H34.3299V10.16H39.7219C39.8392 10.16 39.9352 10.1973 40.0099 10.272C40.0845 10.3467 40.1219 10.4427 40.1219 10.56V11.616C40.1219 11.7227 40.0845 11.8133 40.0099 11.888C39.9352 11.9627 39.8392 12 39.7219 12H32.5539ZM46.011 12.16C45.019 12.16 44.187 12.016 43.515 11.728C42.8537 11.4293 42.347 11.0453 41.995 10.576C41.6537 10.096 41.4723 9.59467 41.451 9.072C41.451 8.976 41.483 8.896 41.547 8.832C41.611 8.768 41.691 8.736 41.787 8.736H43.211C43.3497 8.736 43.451 8.768 43.515 8.832C43.5897 8.88533 43.6537 8.95467 43.707 9.04C43.771 9.24267 43.8937 9.44533 44.075 9.648C44.2563 9.84 44.5017 10 44.811 10.128C45.131 10.256 45.531 10.32 46.011 10.32C46.779 10.32 47.3497 10.192 47.723 9.936C48.107 9.68 48.299 9.33333 48.299 8.896C48.299 8.58667 48.1977 8.34133 47.995 8.16C47.7923 7.968 47.4777 7.79733 47.051 7.648C46.635 7.488 46.0803 7.32267 45.387 7.152C44.587 6.96 43.915 6.73067 43.371 6.464C42.8377 6.18667 42.4323 5.84 42.155 5.424C41.8883 5.008 41.755 4.48 41.755 3.84C41.755 3.22133 41.9203 2.672 42.251 2.192C42.5923 1.712 43.0723 1.33333 43.691 1.056C44.3203 0.778666 45.067 0.639999 45.931 0.639999C46.6243 0.639999 47.2377 0.735999 47.771 0.927999C48.3043 1.10933 48.747 1.35467 49.099 1.664C49.451 1.96267 49.7177 2.288 49.899 2.64C50.091 2.98133 50.1923 3.31733 50.203 3.648C50.203 3.73333 50.171 3.81333 50.107 3.888C50.0537 3.952 49.9737 3.984 49.867 3.984H48.379C48.2937 3.984 48.2083 3.96267 48.123 3.92C48.0377 3.87733 47.9683 3.79733 47.915 3.68C47.851 3.34933 47.643 3.06667 47.291 2.832C46.939 2.59733 46.4857 2.48 45.931 2.48C45.355 2.48 44.891 2.58667 44.539 2.8C44.187 3.01333 44.011 3.344 44.011 3.792C44.011 4.09067 44.0963 4.34133 44.267 4.544C44.4483 4.736 44.731 4.90667 45.115 5.056C45.5097 5.20533 46.027 5.36533 46.667 5.536C47.5737 5.73867 48.315 5.97333 48.891 6.24C49.467 6.50667 49.8883 6.848 50.155 7.264C50.4217 7.66933 50.555 8.18667 50.555 8.816C50.555 9.52 50.363 10.1227 49.979 10.624C49.6057 11.1147 49.0777 11.4933 48.395 11.76C47.7123 12.0267 46.9177 12.16 46.011 12.16Z" fill="#141414"/>
</svg>
