<?xml version="1.0" encoding="utf-8"?>
<!-- Generator: Adobe Illustrator 27.0.0, SVG Export Plug-In . SVG Version: 6.00 Build 0)  -->
<svg version="1.1" id="Слой_1" xmlns="http://www.w3.org/2000/svg" xmlns:xlink="http://www.w3.org/1999/xlink" x="0px" y="0px"
	 viewBox="0 0 1920 1080" style="enable-background:new 0 0 1920 1080;" xml:space="preserve">
<style type="text/css">
	.st0{fill:none;stroke:#F02C2F;stroke-width:18.3728;stroke-linecap:round;stroke-miterlimit:10;}
</style>
<g>
	<g>
		<g>
			<g>
				<path class="st0" d="M119,648.8l-2.8,69.1c-0.2,5.1,4.8,8.7,9.5,7l65-23.5c1.5-0.5,2.7-1.5,3.6-2.7L330,513.5
					c14.9-20.4,10.5-49-9.9-63.9l0,0c-20.4-14.9-49-10.5-63.9,9.9L120.5,644.7C119.6,645.9,119.1,647.3,119,648.8z"/>
				<line class="st0" x1="193" y1="700.3" x2="121.5" y2="649.5"/>
				<line class="st0" x1="329.9" y1="508.1" x2="260.6" y2="458.7"/>
			</g>
		</g>
	</g>
	<path class="st0" d="M95.4,427"/>
	<path class="st0" d="M72.6,682.8C44.1,648.6,27,604.9,27,557.3c0-109.7,90.9-198.7,203-198.7s203,89,203,198.7S342,756,230,756
		c-39.4,0-76.1-11-107.2-30"/>
</g>
<g>
	<path d="M605.7,666.5c-2.1,0-3.7-0.6-5-1.9c-1.2-1.2-1.9-2.9-1.9-5V466.8h-61.8c-2.1,0-3.7-0.6-5-1.9c-1.2-1.2-1.9-2.9-1.9-5v-4.7
		c0-2.3,0.6-4.1,1.9-5.3c1.2-1.2,2.9-1.9,5-1.9h142.9c2.3,0,4.1,0.6,5.3,1.9c1.2,1.2,1.9,3,1.9,5.3v4.7c0,2.1-0.6,3.7-1.9,5
		c-1.2,1.2-3,1.9-5.3,1.9h-61.5v192.8c0,2.1-0.6,3.7-1.9,5c-1.2,1.2-3,1.9-5.3,1.9H605.7z"/>
	<path d="M798.8,669.6c-17.3,0-31.9-3.1-44-9.2c-12.1-6.1-21.3-15.6-27.8-28.4c-6.4-12.8-10-29-10.6-48.5
		c-0.2-9.4-0.3-18.1-0.3-26.2s0.1-16.8,0.3-26.2c0.6-19.3,4.4-35.4,11.2-48.2c6.9-12.8,16.4-22.3,28.5-28.5s26.4-9.4,42.6-9.4
		c16.2,0,30.4,3.1,42.6,9.4s21.7,15.8,28.7,28.5c7,12.8,10.7,28.9,11.1,48.2c0.4,9.4,0.6,18.1,0.6,26.2s-0.2,16.8-0.6,26.2
		c-0.4,19.5-3.9,35.7-10.4,48.5s-15.9,22.3-27.9,28.4C830.7,666.5,816,669.6,798.8,669.6z M798.8,650.9c17.9,0,32.6-5.4,44.1-16.2
		c11.5-10.8,17.7-28.4,18.6-52.7c0.4-9.4,0.6-17.6,0.6-24.6c0-7.1-0.2-15.3-0.6-24.6c-0.4-16.2-3.4-29.4-8.9-39.6
		c-5.5-10.2-12.9-17.6-22.1-22.3c-9.3-4.7-19.8-7-31.7-7c-11.6,0-22.1,2.3-31.3,7c-9.3,4.7-16.6,12.1-22.1,22.3
		c-5.5,10.2-8.6,23.4-9.2,39.6c-0.2,9.4-0.3,17.6-0.3,24.6c0,7.1,0.1,15.3,0.3,24.6c0.8,24.3,7.1,41.9,18.7,52.7
		C766.4,645.5,781.1,650.9,798.8,650.9z"/>
	<path d="M938.2,666.5c-2.1,0-3.7-0.6-5-1.9c-1.2-1.2-1.9-2.9-1.9-5V455.3c0-2.3,0.6-4.1,1.9-5.3c1.2-1.2,2.9-1.9,5-1.9h6.6
		c2.1,0,3.6,0.5,4.7,1.6c1,1,1.7,1.8,1.9,2.2l115.1,175.9V455.3c0-2.3,0.6-4.1,1.9-5.3c1.2-1.2,2.9-1.9,5-1.9h5.6
		c2.3,0,4.1,0.6,5.3,1.9c1.2,1.2,1.9,3,1.9,5.3v204c0,2.1-0.6,3.8-1.9,5.1c-1.2,1.4-2.9,2-5,2h-6.9c-2.1,0-3.6-0.5-4.5-1.6
		c-0.9-1-1.6-1.8-2-2.2L951,487.4v172.2c0,2.1-0.6,3.7-1.9,5c-1.2,1.2-3,1.9-5.3,1.9H938.2z"/>
	<path d="M1218.6,669.6c-17.3,0-31.9-3.1-44-9.2c-12.1-6.1-21.3-15.6-27.8-28.4c-6.4-12.8-10-29-10.6-48.5
		c-0.2-9.4-0.3-18.1-0.3-26.2s0.1-16.8,0.3-26.2c0.6-19.3,4.4-35.4,11.2-48.2c6.9-12.8,16.4-22.3,28.5-28.5
		c12.2-6.2,26.4-9.4,42.6-9.4s30.4,3.1,42.6,9.4c12.2,6.2,21.7,15.8,28.7,28.5c7,12.8,10.7,28.9,11.1,48.2
		c0.4,9.4,0.6,18.1,0.6,26.2s-0.2,16.8-0.6,26.2c-0.4,19.5-3.9,35.7-10.5,48.5c-6.5,12.8-15.9,22.3-27.9,28.4
		C1250.5,666.5,1235.9,669.6,1218.6,669.6z M1218.6,650.9c17.9,0,32.6-5.4,44.1-16.2c11.5-10.8,17.7-28.4,18.6-52.7
		c0.4-9.4,0.6-17.6,0.6-24.6c0-7.1-0.2-15.3-0.6-24.6c-0.4-16.2-3.4-29.4-8.9-39.6c-5.5-10.2-12.9-17.6-22.1-22.3
		c-9.3-4.7-19.8-7-31.7-7c-11.6,0-22.1,2.3-31.3,7c-9.3,4.7-16.6,12.1-22.1,22.3c-5.5,10.2-8.6,23.4-9.2,39.6
		c-0.2,9.4-0.3,17.6-0.3,24.6c0,7.1,0.1,15.3,0.3,24.6c0.8,24.3,7.1,41.9,18.7,52.7C1186.3,645.5,1200.9,650.9,1218.6,650.9z"/>
	<path d="M1405.8,666.5c-2.1,0-3.7-0.6-5-1.9c-1.2-1.2-1.9-2.9-1.9-5V466.8h-61.8c-2.1,0-3.7-0.6-5-1.9c-1.2-1.2-1.9-2.9-1.9-5v-4.7
		c0-2.3,0.6-4.1,1.9-5.3c1.2-1.2,2.9-1.9,5-1.9H1480c2.3,0,4.1,0.6,5.3,1.9c1.2,1.2,1.9,3,1.9,5.3v4.7c0,2.1-0.6,3.7-1.9,5
		c-1.2,1.2-3,1.9-5.3,1.9h-61.5v192.8c0,2.1-0.6,3.7-1.9,5c-1.2,1.2-3,1.9-5.3,1.9H1405.8z"/>
	<path d="M1531.8,666.5c-2.1,0-3.7-0.6-5-1.9c-1.2-1.2-1.9-2.9-1.9-5V455.3c0-2.3,0.6-4.1,1.9-5.3c1.2-1.2,2.9-1.9,5-1.9h121.7
		c2.3,0,4.1,0.6,5.3,1.9c1.2,1.2,1.9,3,1.9,5.3v4.7c0,2.1-0.6,3.7-1.9,5c-1.2,1.2-3,1.9-5.3,1.9h-108.9v79.5h102
		c2.3,0,4.1,0.6,5.3,1.9c1.2,1.2,1.9,3,1.9,5.3v4.7c0,2.1-0.6,3.7-1.9,5c-1.2,1.2-3,1.9-5.3,1.9h-102v82.7h111.4
		c2.3,0,4.1,0.6,5.3,1.9c1.2,1.2,1.9,3,1.9,5.3v4.7c0,2.1-0.6,3.7-1.9,5c-1.2,1.2-3,1.9-5.3,1.9H1531.8z"/>
	<path d="M1775.1,669.6c-16.8,0-31.1-2.7-42.9-8.1c-11.8-5.4-20.7-12.4-27-20.9c-6.2-8.5-9.6-17.6-10-27.1c0-1.7,0.6-3.1,1.9-4.4
		c1.2-1.2,2.8-1.9,4.7-1.9h6.2c2.1,0,3.7,0.6,4.8,1.9c1.1,1.2,1.8,2.7,2,4.4c0.8,5.8,3.4,11.6,7.8,17.3c4.4,5.7,10.8,10.5,19.3,14.3
		c8.5,3.8,19.5,5.8,33.1,5.8c20.4,0,35.2-3.7,44.6-11.1c9.4-7.4,14-17.3,14-29.8c0-8.3-2.4-15-7.3-20.1c-4.9-5.1-12.3-9.7-22.3-13.7
		c-10-4.1-22.8-8.6-38.4-13.6c-14.8-4.8-26.9-9.7-36.5-14.8c-9.6-5.1-16.6-11.3-21.1-18.6c-4.5-7.3-6.7-16.6-6.7-28.1
		c0-10.6,2.8-20.1,8.4-28.5c5.6-8.4,13.8-15.1,24.5-20.1c10.7-5,23.8-7.5,39.1-7.5c12.3,0,23,1.7,32.1,5c9.1,3.3,16.7,7.7,22.8,13.3
		c6,5.5,10.6,11.4,13.7,17.8c3.1,6.3,4.8,12.5,5,18.6c0,1.5-0.5,2.9-1.6,4.2c-1,1.4-2.7,2-5,2h-6.2c-1,0-2.3-0.4-3.9-1.2
		c-1.6-0.8-2.5-2.5-3-5c-1.2-10.4-6.7-19-16.4-25.7c-9.7-6.8-22.2-10.1-37.6-10.1c-15.4,0-28,3-37.7,9c-9.8,6-14.7,15.5-14.7,28.4
		c0,8.3,2.2,15.1,6.6,20.4s11.2,10,20.6,14s21.4,8.5,36.2,13.3c15.6,5,28.5,10,38.7,15c10.2,5,17.8,11.1,22.8,18.2
		c5,7.2,7.5,16.5,7.5,27.9c0,12.7-3.2,23.4-9.5,32.3c-6.3,8.8-15.3,15.6-27,20.3C1805.3,667.2,1791.3,669.6,1775.1,669.6z"/>
</g>
</svg>
